<svg width="34" height="32" viewBox="0 0 34 32" fill="none" xmlns="http://www.w3.org/2000/svg">
<path d="M16.7786 3.16569C18.7342 1.44812 21.2813 0.558666 23.881 0.685502C26.4807 0.812339 28.9292 1.94551 30.7083 3.84531C32.4875 5.7451 33.4578 8.26249 33.4141 10.8649C33.3703 13.4674 32.3159 15.9507 30.4739 17.7897L22.0652 26.1984L16.7753 31.4851L5.05942 19.7708L3.07994 17.7881C1.23851 15.9489 0.184694 13.4655 0.141403 10.8632C0.0981123 8.26098 1.06874 5.74394 2.84798 3.84449C4.62722 1.94505 7.07553 0.812175 9.67505 0.685492C12.2746 0.55881 14.8231 1.44825 16.7786 3.16569Z" fill="black"/>
</svg>
