<svg width="15" height="15" viewBox="0 0 15 15" fill="none" xmlns="http://www.w3.org/2000/svg">
<path d="M7.67667 0.363525C5.73664 0.363525 5.49486 0.372893 4.73562 0.405012C3.97325 0.442483 3.45757 0.560696 3.00257 0.737347C2.52635 0.917129 2.09507 1.19861 1.7388 1.56216C1.37423 1.9176 1.09259 2.34912 0.913983 2.82593C0.737332 3.28094 0.619119 3.79662 0.581647 4.55898C0.547299 5.31867 0.540161 5.56 0.540161 7.50004C0.540161 9.44007 0.549529 9.68185 0.581647 10.4411C0.619119 11.2012 0.737332 11.7191 0.913983 12.1741C1.09377 12.6504 1.37524 13.0816 1.7388 13.4379C2.09424 13.8025 2.52576 14.0841 3.00257 14.2627C3.45757 14.4371 3.97548 14.5576 4.73562 14.5951C5.4953 14.6294 5.73664 14.6365 7.67667 14.6365C9.61671 14.6365 9.85849 14.6272 10.6177 14.5951C11.3779 14.5576 11.8958 14.4367 12.3508 14.2627C12.827 14.0829 13.2583 13.8015 13.6145 13.4379C13.9796 13.0829 14.2613 12.6512 14.4394 12.1741C14.6138 11.7191 14.7342 11.2012 14.7717 10.4411C14.806 9.68141 14.8132 9.44007 14.8132 7.50004C14.8132 5.56 14.8038 5.31822 14.7717 4.55898C14.7342 3.79885 14.6133 3.27826 14.4394 2.82593C14.2596 2.34971 13.9781 1.91844 13.6145 1.56216C13.2595 1.19712 12.8279 0.915416 12.3508 0.737347C11.8958 0.560696 11.3779 0.442483 10.6177 0.405012C9.85804 0.370663 9.61671 0.363525 7.67667 0.363525ZM7.67667 1.64826C9.58191 1.64826 9.80942 1.65763 10.5624 1.68974C11.257 1.72231 11.6353 1.83829 11.8864 1.93643C12.1969 2.05104 12.4779 2.23346 12.709 2.4704C12.9455 2.7005 13.1273 2.98088 13.2407 3.29075C13.3389 3.5419 13.4548 3.92018 13.4874 4.61474C13.5195 5.36774 13.5289 5.59569 13.5289 7.50048C13.5289 9.40528 13.5195 9.63323 13.4847 10.3862C13.4473 11.0808 13.3313 11.4591 13.2336 11.7102C13.0984 12.0452 12.9476 12.2794 12.6987 12.5328C12.4669 12.7683 12.186 12.9498 11.8761 13.0645C11.6281 13.1627 11.2445 13.2787 10.5472 13.3112C9.79024 13.3433 9.56719 13.3527 7.65704 13.3527C5.7469 13.3527 5.5243 13.3433 4.7664 13.3085C4.07184 13.2711 3.68865 13.1551 3.4375 13.0574C3.09847 12.9222 2.86606 12.7715 2.61715 12.5225C2.366 12.2714 2.2063 12.0323 2.08318 11.7C1.98325 11.4519 1.86906 11.0683 1.83203 10.3711C1.8066 9.62297 1.79456 9.391 1.79456 7.48978C1.79456 5.58944 1.8066 5.35703 1.83203 4.59957C1.86906 3.90234 1.98325 3.5196 2.08318 3.27068C2.2063 2.93121 2.36644 2.69924 2.61715 2.44809C2.86562 2.19962 3.09847 2.03903 3.4375 1.91323C3.68865 1.81554 4.06247 1.69956 4.75971 1.66476C5.51672 1.63755 5.73976 1.62774 7.64723 1.62774L7.67667 1.64826ZM7.67667 3.83721C7.1955 3.83703 6.719 3.93168 6.27442 4.11574C5.82984 4.29979 5.42588 4.56965 5.08564 4.9099C4.7454 5.25014 4.47554 5.65409 4.29148 6.09868C4.10742 6.54326 4.01278 7.01975 4.01295 7.50093C4.01278 7.9821 4.10742 8.4586 4.29148 8.90318C4.47554 9.34776 4.7454 9.75172 5.08564 10.092C5.42588 10.4322 5.82984 10.7021 6.27442 10.8861C6.719 11.0702 7.1955 11.1648 7.67667 11.1646C8.15785 11.1648 8.63434 11.0702 9.07893 10.8861C9.52351 10.7021 9.92746 10.4322 10.2677 10.092C10.6079 9.75172 10.8778 9.34776 11.0619 8.90318C11.2459 8.4586 11.3406 7.9821 11.3404 7.50093C11.3406 7.01975 11.2459 6.54326 11.0619 6.09868C10.8778 5.65409 10.6079 5.25014 10.2677 4.9099C9.92746 4.56965 9.52351 4.29979 9.07893 4.11574C8.63434 3.93168 8.15785 3.83703 7.67667 3.83721ZM7.67667 9.87992C6.36161 9.87992 5.29769 8.816 5.29769 7.50093C5.29769 6.18586 6.36161 5.12194 7.67667 5.12194C8.99174 5.12194 10.0557 6.18586 10.0557 7.50093C10.0557 8.816 8.99174 9.87992 7.67667 9.87992ZM12.3445 3.69089C12.3443 3.91825 12.2538 4.13621 12.093 4.29689C11.9321 4.45757 11.7141 4.54783 11.4867 4.54783C11.3743 4.54783 11.263 4.52569 11.1591 4.48267C11.0553 4.43965 10.9609 4.37659 10.8814 4.2971C10.8019 4.21761 10.7388 4.12324 10.6958 4.01938C10.6528 3.91552 10.6307 3.8042 10.6307 3.69179C10.6307 3.57937 10.6528 3.46805 10.6958 3.36419C10.7388 3.26033 10.8019 3.16596 10.8814 3.08647C10.9609 3.00698 11.0553 2.94393 11.1591 2.90091C11.263 2.85789 11.3743 2.83574 11.4867 2.83574C11.9582 2.83574 12.3445 3.21938 12.3445 3.69089Z" fill="#772F1A"/>
</svg>
