<svg width="17" height="17" viewBox="0 0 17 17" fill="none" xmlns="http://www.w3.org/2000/svg">
<path fill-rule="evenodd" clip-rule="evenodd" d="M5.3028 2.20652C4.41957 2.20894 3.57347 2.56204 2.95053 3.18817C2.32759 3.8143 1.97881 4.6622 1.9809 5.54542C1.9809 7.4771 3.10171 9.48462 4.62273 11.3391C5.95803 12.9687 7.52874 14.3929 8.71233 15.4497C9.89592 14.3929 11.4666 12.9687 12.8019 11.3391C14.3229 9.48462 15.4438 7.4771 15.4438 5.54542C15.4458 4.6622 15.0971 3.8143 14.4741 3.18817C13.8512 2.56204 13.0051 2.20894 12.1219 2.20652C11.0285 2.20652 10.4374 2.5871 10.0725 2.99907C9.73113 3.38488 9.55719 3.82039 9.39894 4.21797L9.31655 4.42199C9.26708 4.54153 9.18326 4.6437 9.07571 4.71559C8.96816 4.78748 8.84169 4.82586 8.71233 4.82586C8.58296 4.82586 8.4565 4.78748 8.34894 4.71559C8.24139 4.6437 8.15758 4.54153 8.10811 4.42199L8.02571 4.21797C7.86747 3.82039 7.69352 3.38488 7.35218 2.99907C6.98729 2.5871 6.39746 2.20652 5.3028 2.20652ZM0.673061 5.54542C0.670978 4.31534 1.15754 3.13479 2.02575 2.26339C2.89396 1.39199 4.07272 0.901107 5.3028 0.898682C6.76104 0.898682 7.71183 1.43228 8.33175 2.13197C8.47823 2.29676 8.60378 2.4707 8.71233 2.64203C8.82088 2.4707 8.94774 2.29676 9.09291 2.13197C9.71282 1.43228 10.6623 0.898682 12.1219 0.898682C13.3519 0.901107 14.5307 1.39199 15.3989 2.26339C16.2671 3.13479 16.7537 4.31534 16.7516 5.54542C16.7516 7.9453 15.3836 10.2536 13.8142 12.1683C12.3272 13.9823 10.5708 15.5451 9.37409 16.611L9.14784 16.8137C9.028 16.9207 8.87297 16.9799 8.71233 16.9799C8.55168 16.9799 8.39665 16.9207 8.27682 16.8137L8.05056 16.611C6.85259 15.5451 5.09747 13.9823 3.61046 12.1683C2.04236 10.2536 0.671753 7.9453 0.671753 5.54542" fill="black"/>
</svg>
