<svg width="22" height="21" viewBox="0 0 22 21" fill="none" xmlns="http://www.w3.org/2000/svg">
<path d="M5.11955 3.00726C5.11927 3.57507 4.89343 4.11952 4.49173 4.52083C4.09002 4.92213 3.54535 5.14743 2.97753 5.14714C2.40971 5.14686 1.86527 4.92102 1.46396 4.51931C1.06265 4.11761 0.837363 3.57293 0.837647 3.00512C0.837931 2.4373 1.06377 1.89285 1.46547 1.49155C1.86718 1.09024 2.41185 0.864951 2.97967 0.865235C3.54749 0.865519 4.09193 1.09135 4.49324 1.49306C4.89455 1.89477 5.11984 2.43944 5.11955 3.00726ZM5.18378 6.73252H0.901875V20.1349H5.18378V6.73252ZM11.9492 6.73252H7.6887V20.1349H11.9064V13.1019C11.9064 9.18391 17.0125 8.81995 17.0125 13.1019V20.1349H21.2409V11.646C21.2409 5.04116 13.6834 5.28737 11.9064 8.53092L11.9492 6.73252Z" fill="#772F1A"/>
</svg>
