<svg width="25" height="25" viewBox="0 0 25 25" fill="none" xmlns="http://www.w3.org/2000/svg">
<path fill-rule="evenodd" clip-rule="evenodd" d="M12.6314 17.919C14.1144 17.1498 19.2334 14.1313 19.2334 9.11499C19.2334 5.249 16.0994 2.11499 12.2334 2.11499C8.36741 2.11499 5.2334 5.249 5.2334 9.11499C5.2334 14.1313 10.3524 17.1498 11.8354 17.919C12.0882 18.0501 12.3786 18.0501 12.6314 17.919ZM12.2334 12.115C13.8903 12.115 15.2334 10.7718 15.2334 9.11499C15.2334 7.45814 13.8903 6.11499 12.2334 6.11499C10.5765 6.11499 9.2334 7.45814 9.2334 9.11499C9.2334 10.7718 10.5765 12.115 12.2334 12.115Z" fill="#222222"/>
<path d="M18.2956 16.615C18.91 17.071 19.2334 17.5884 19.2334 18.115C19.2334 18.6416 18.91 19.1589 18.2956 19.615C17.6812 20.071 16.7975 20.4498 15.7334 20.7131C14.6693 20.9764 13.4622 21.115 12.2334 21.115C11.0046 21.115 9.79753 20.9764 8.7334 20.7131C7.66926 20.4498 6.7856 20.071 6.17122 19.615C5.55684 19.1589 5.2334 18.6416 5.2334 18.115C5.2334 17.5884 5.55684 17.071 6.17122 16.615" stroke="#222222" stroke-width="2" stroke-linecap="round"/>
</svg>
