<svg width="14" height="14" viewBox="0 0 14 14" fill="none" xmlns="http://www.w3.org/2000/svg">
<path d="M0.161133 11.39V13.3392C0.161133 13.452 0.205914 13.5601 0.285624 13.6398C0.365334 13.7195 0.473445 13.7643 0.586172 13.7643H2.53965C2.65216 13.7643 2.76007 13.7196 2.83973 13.6402L10.8713 5.60862L8.32103 3.05839L0.286095 11.0899C0.206327 11.1694 0.161382 11.2774 0.161133 11.39ZM9.37343 2.00514L11.9237 4.55538L13.1648 3.31426C13.3241 3.15485 13.4137 2.93867 13.4137 2.71326C13.4137 2.48785 13.3241 2.27167 13.1648 2.11225L11.8174 0.764028C11.658 0.604663 11.4418 0.515137 11.2164 0.515137C10.991 0.515137 10.7748 0.604663 10.6154 0.764028L9.37343 2.00514Z" fill="black"/>
</svg>
