<svg width="31" height="20" viewBox="0 0 31 20" fill="none" xmlns="http://www.w3.org/2000/svg">
<g clip-path="url(#clip0_501_3700)">
<path d="M28.7649 7.50613H22.7774L17.2899 0.936133C17.1755 0.80001 17.0211 0.688474 16.8402 0.611354C16.6593 0.534234 16.4574 0.493896 16.2524 0.493896C16.0474 0.493896 15.8455 0.534234 15.6646 0.611354C15.4837 0.688474 15.3292 0.80001 15.2149 0.936133L9.72739 7.50613H3.76489C3.07739 7.50613 2.51489 7.95613 2.51489 8.50613C2.51489 8.59613 2.52739 8.68613 2.56489 8.77613L5.73989 18.0461C6.02739 18.8861 6.98989 19.5061 8.13989 19.5061H24.3899C25.5399 19.5061 26.5024 18.8861 26.8024 18.0461L29.9774 8.77613L30.0149 8.50613C30.0149 7.95613 29.4524 7.50613 28.7649 7.50613ZM16.2524 3.29613L19.7649 7.50613H12.7399L16.2524 3.29613ZM16.2649 15.5061C14.8899 15.5061 13.7649 14.6061 13.7649 13.5061C13.7649 12.4061 14.8899 11.5061 16.2649 11.5061C17.6399 11.5061 18.7649 12.4061 18.7649 13.5061C18.7649 14.6061 17.6399 15.5061 16.2649 15.5061Z" fill="#E8D2BA"/>
<rect x="15" y="1" width="14.5991" height="14.5991" rx="7.29956" fill="#E02121"/>
<path d="M21.0971 6.34096V5.27486H23.0888V11.2996H21.8987V6.34096H21.0971Z" fill="white"/>
</g>
<defs>
<clipPath id="clip0_501_3700">
<rect width="30" height="19.0122" fill="white" transform="translate(0.0148926 0.493896)"/>
</clipPath>
</defs>
</svg>
