<svg width="22" height="22" viewBox="0 0 22 22" fill="none" xmlns="http://www.w3.org/2000/svg">
<path d="M19.1128 19.1053L15.2014 15.194M15.2014 15.194C15.8705 14.5249 16.4012 13.7306 16.7633 12.8565C17.1254 11.9823 17.3117 11.0454 17.3117 10.0992C17.3117 9.15305 17.1254 8.21613 16.7633 7.34197C16.4012 6.46781 15.8705 5.67353 15.2014 5.00448C14.5324 4.33543 13.7381 3.80471 12.8639 3.44262C11.9898 3.08053 11.0529 2.89417 10.1067 2.89417C9.16049 2.89417 8.22357 3.08053 7.34942 3.44262C6.47526 3.80471 5.68098 4.33543 5.01193 5.00448C3.66071 6.35569 2.90161 8.18833 2.90161 10.0992C2.90161 12.0101 3.66071 13.8428 5.01193 15.194C6.36314 16.5452 8.19577 17.3043 10.1067 17.3043C12.0176 17.3043 13.8502 16.5452 15.2014 15.194Z" stroke="#E8D2BA" stroke-width="0.720488" stroke-linecap="round" stroke-linejoin="round"/>
</svg>
