<svg width="37" height="31" viewBox="0 0 37 31" fill="none" xmlns="http://www.w3.org/2000/svg">
<path d="M35.3247 11.5503H27.4269L20.1886 1.01848C20.0378 0.800273 19.8341 0.62148 19.5955 0.497855C19.3568 0.374231 19.0905 0.30957 18.8201 0.30957C18.5497 0.30957 18.2835 0.374231 18.0448 0.497855C17.8062 0.62148 17.6024 0.800273 17.4516 1.01848L10.2133 11.5503H2.34852C1.44167 11.5503 0.699707 12.2716 0.699707 13.1533C0.699707 13.2975 0.716195 13.4418 0.765659 13.5861L4.95364 28.446C5.33286 29.7925 6.60245 30.7864 8.11935 30.7864H29.5539C31.0708 30.7864 32.3404 29.7925 32.7361 28.446L36.9241 13.5861L36.9735 13.1533C36.9735 12.2716 36.2316 11.5503 35.3247 11.5503ZM18.8201 4.80158L23.4533 11.5503H14.187L18.8201 4.80158ZM18.8366 24.3743C17.0229 24.3743 15.539 22.9316 15.539 21.1683C15.539 19.405 17.0229 17.9623 18.8366 17.9623C20.6503 17.9623 22.1342 19.405 22.1342 21.1683C22.1342 22.9316 20.6503 24.3743 18.8366 24.3743Z" fill="#E8D2BA"/>
</svg>
