<svg width="15" height="11" viewBox="0 0 15 11" fill="none" xmlns="http://www.w3.org/2000/svg">
<path d="M5.88597 7.6409L9.58982 5.49995L5.88597 3.359V7.6409ZM14.1358 2.05302C14.2285 2.38843 14.2928 2.83803 14.3356 3.40895C14.3856 3.97987 14.407 4.47229 14.407 4.90048L14.4498 5.49995C14.4498 7.06285 14.3356 8.21183 14.1358 8.94689C13.9574 9.58917 13.5434 10.0031 12.9012 10.1815C12.5657 10.2743 11.952 10.3385 11.01 10.3813C10.0822 10.4313 9.23299 10.4527 8.44797 10.4527L7.31327 10.4955C4.32307 10.4955 2.46044 10.3813 1.72538 10.1815C1.08309 10.0031 0.669177 9.58917 0.490764 8.94689C0.39799 8.61147 0.333761 8.16187 0.290942 7.59095C0.240986 7.02003 0.219577 6.52761 0.219577 6.09942L0.176758 5.49995C0.176758 3.93706 0.290942 2.78808 0.490764 2.05302C0.669177 1.41073 1.08309 0.996814 1.72538 0.818401C2.0608 0.725626 2.67454 0.661398 3.61656 0.618579C4.5443 0.568623 5.39355 0.547214 6.17856 0.547214L7.31327 0.504395C10.3035 0.504395 12.1661 0.618579 12.9012 0.818401C13.5434 0.996814 13.9574 1.41073 14.1358 2.05302Z" fill="#772F1A"/>
</svg>
